/* XPM */
static char * del_xpm[] = {
/* width height ncolors cpp [x_hot y_hot] */
"33 33 4 1 0 0",
/* colors */
" 	s iconGray2	m white	c #bdbdbdbdbdbd",
".	s iconGray8	m black	c #212121212121",
"X	s iconColor8	m black	c magenta",
"o	s iconColor1	m black	c black",
/* pixels */
"           .                     ",
"                                 ",
"                                 ",
"               XXX               ",
"              XXXX               ",
"              XXXXX              ",
"             XXXXXX              ",
"             XXXXXXX             ",
"            XXXXXXXX             ",
"            XXXoooXXX            ",
"           XXXoooooXX            ",
"           XXXoooooXXX           ",
"          XXXXoooooXXX           ",
"          XXXXoooooXXXX          ",
"         XXXXXoooooXXXX          ",
"         XXXXXoooooXXXXX         ",
"        XXXXXXoooooXXXXX         ",
"        XXXXXXoooooXXXXXX        ",
"       XXXXXXXXoooXXXXXXX        ",
"       XXXXXXXXoooXXXXXXXX       ",
"      XXXXXXXXXoooXXXXXXXX       ",
"      XXXXXXXXXoooXXXXXXXXX      ",
"     XXXXXXXXXXXXXXXXXXXXXX      ",
"     XXXXXXXXXXoooXXXXXXXXXX     ",
"    XXXXXXXXXXoooooXXXXXXXXX     ",
"    XXXXXXXXXXoooooXXXXXXXXXX    ",
"   XXXXXXXXXXXXoooXXXXXXXXXXX    ",
"   XXXXXXXXXXXXXXXXXXXXXXXXXXX   ",
"   XXXXXXXXXXXXXXXXXXXXXXXXXXX   ",
"                                 ",
"                                 ",
"                                 ",
"                                 "};
