/* XPM */
static char * shell-cap-xx_xpm[] = {
/* width height ncolors cpp [x_hot y_hot] */
"33 33 10 1 26 23",
/* colors */
" 	s iconGray1	m white	c #dededededede",
".	s iconGray6	m black	c #636363636363",
"X	s iconColor2	m white	c white",
"o	s iconGray2	m white	c #bdbdbdbdbdbd",
"O	s iconGray5	m black	c #737373737373",
"+	s iconGray7	m black	c #424242424242",
"@	s iconColor3	m black	c red",
"#	s iconGray3	m white	c #adadadadadad",
"$	s iconColor6	m white	c yellow",
"%	s iconGray4	m white	c #949494949494",
/* pixels */
"                                 ",
"       ..........................",
"       .XXXXXXXXXXXXXXXXXXXXXXXXX",
"       .XXXXXXXXXXXXXXXXXXXXXXXXX",
"       .XXXXXXXXXXXXXXXXXXXXXXXXX",
"       .XXXXXXXXXXXXXXXXXXXXXXXXX",
"       .XXXXXXXooo..O..OooOOooXXX",
"       .XXXXXXXXXXXXXXXXXXXXXXXXX",
"XXXXX+ .XXXXXX+XXXXXXXXXXXX+XXXXX",
"@@@@@+ .X@@@@@+XX@@@@@@@@@@+..Ooo",
"X@@@@+ .X@@@@+XXX@@@@@@@@@@+XXXXX",
"X@@@@@+X@@@@@+##X@@@@@@@@@@+###XX",
" X@@@@+X@@@@+###X@@@@@++++++###OO",
" X@@@@@@@@@@+##$X@@@@@+$$$$#$$$$$",
"  X@@@@@@@@+###$X@@@@@+XXXXX$$$$$",
"  X@@@@@@@@+###$X@@@@@@@@@@+###oo",
"   X@@@@@@+####$X@@@@@@@@@@+$$$$$",
"  X@@@@@@@@+###$X@@@@@@@@@@+$$$$$",
"  X@@@@@@@@+##  X@@@@@++++++##.OO",
" X@@@@@@@@@@+## X@@@@@+########XX",
" X@@@@++@@@@+## X@@@@@+XXXXX###XX",
"X@@@@@+X@@@@@+##X@@@@@@@@@@+###oo",
"X@@@@+##X@@@@+##X@@@@@@@@@@+XXXXX",
"@@@@@+##X@@@@@+#X@@@@@@@@@@+...OO",
"++++++##+++++++#++++++++++++###XX",
"   #####.XXX######XX##....##...OO",
"   #####.XXX######XX###########XX",
"        .XXXXXXXXXXXXXXXXXXXXXXXX",
"        .XXXXXXXXXXXX..oOOO.ooOoo",
"        .XXXX%@%XXXXXXXXXXXXXXXXX",
"        .XXX%@@@%XXXXXXXXXXXXXXXX",
"        .XXX@@@@@oOOOoo.OOOoXXXXX",
"        .XXX%@@@%XXXXXXXXXXXXXXXX"};
