/* XPM */
static char * del_xpm[] = {
/* width height ncolors cpp [x_hot y_hot] */
"33 33 4 1 0 0",
/* colors */
" 	s iconGray2	m white	c #bdbdbdbdbdbd",
".	s iconGray8	m black	c #212121212121",
"X	s iconColor1	m black	c black",
"o	c #BFBFBFBFBFBF",
/* pixels */
"           .                     ",
"          ..                     ",
"         ...                     ",
"        .........  ...           ",
"       .......... .XXX.          ",
"      ........... .XXX.          ",
"       .......... .XXX.          ",
"        .........  ...           ",
"         ...                     ",
"          ..                     ",
"           .                     ",
"                                 ",
"                                 ",
"                                 ",
"                                 ",
"                                 ",
"                                 ",
"     ....            .           ",
"     .  X.           .           ",
"     .  X.  ..   ..  .  .        ",
"     ....  .XX. .  . . .         ",
"     .  X. X  . .    ..          ",
"     .  X. .XX. .  . . .         ",
"     ....   .. . ..  .  .        ",
"                                 ",
"                                 ",
"                                 ",
"                                 ",
"         oo         oo           ",
"         oo         oo           ",
"                                 ",
"                                 ",
"                                 "};
